<?xml version="1.0" encoding="iso-8859-1"?>
<!-- Generator: Adobe Illustrator 16.0.2, SVG Export Plug-In . SVG Version: 6.00 Build 0)  -->
<!DOCTYPE svg PUBLIC "-//W3C//DTD SVG 1.1//EN" "http://www.w3.org/Graphics/SVG/1.1/DTD/svg11.dtd">
<svg version="1.1" id="Layer_1" xmlns="http://www.w3.org/2000/svg" xmlns:xlink="http://www.w3.org/1999/xlink" x="0px" y="0px"
	 width="20px" height="20px" viewBox="0 0 20 20" style="enable-background:new 0 0 20 20;" xml:space="preserve">
<image style="overflow:visible;" width="512" height="512" xlink:href="../../../../../Users/Zerbou3i/Downloads/clipart2596309.png"  transform="matrix(0.416 0 0 0.416 312.9775 38.0635)">
</image>
<g>
	<path style="stroke:#000000;stroke-width:3;stroke-linejoin:round;stroke-miterlimit:10;" d="M-3.793,65.053v1.374
		c2.815,0.562,4.942,3.052,4.942,6.029c0,3.391-2.758,6.149-6.149,6.149s-6.149-2.758-6.149-6.149c0-2.977,2.127-5.467,4.942-6.029
		v-1.374c-3.564,0.578-6.293,3.677-6.293,7.402c0,4.136,3.364,7.5,7.5,7.5s7.5-3.364,7.5-7.5C2.5,68.73-0.229,65.631-3.793,65.053z"
		/>
	<g>
		<path d="M-4.34,65.732c0,2.371-0.297,4.311-0.66,4.311s-0.66-1.94-0.66-4.311c0-2.371,0.297-4.311,0.66-4.311
			S-4.34,63.361-4.34,65.732z"/>
	</g>
</g>
<g>
	<path d="M10,0C4.477,0,0,4.477,0,10s4.477,10,10,10s10-4.477,10-10S15.523,0,10,0z M10,19.3c-5.128,0-9.3-4.172-9.3-9.3
		S4.872,0.7,10,0.7s9.3,4.172,9.3,9.3S15.128,19.3,10,19.3z"/>
	<polygon points="11.21,8.443 11.212,8.442 11.207,8.447 	"/>
	<polygon points="11.22,8.433 11.212,8.442 11.216,8.436 	"/>
	<path d="M13.933,14.75c0,0.396-0.018,0.785-0.054,1.163c-1.114,0.732-2.447,1.158-3.879,1.158s-2.765-0.426-3.879-1.158
		c-0.036-0.378-0.054-0.767-0.054-1.163c0-2.251,0.594-4.254,1.518-5.538c0.62,0.653,1.489,1.035,2.415,1.035
		s1.795-0.383,2.416-1.035C13.339,10.496,13.933,12.499,13.933,14.75z"/>
	<path d="M11.987,6.91c0,0.343-0.087,0.667-0.242,0.95C11.409,8.478,10.753,8.897,10,8.897S8.591,8.478,8.255,7.86
		C8.101,7.578,8.013,7.253,8.013,6.91c0-1.097,0.889-1.987,1.987-1.987S11.987,5.813,11.987,6.91z"/>
</g>
</svg>
