<?xml version="1.0" encoding="iso-8859-1"?>
<!-- Generator: Adobe Illustrator 16.0.2, SVG Export Plug-In . SVG Version: 6.00 Build 0)  -->
<!DOCTYPE svg PUBLIC "-//W3C//DTD SVG 1.1//EN" "http://www.w3.org/Graphics/SVG/1.1/DTD/svg11.dtd">
<svg version="1.1" id="Layer_1" xmlns="http://www.w3.org/2000/svg" xmlns:xlink="http://www.w3.org/1999/xlink" x="0px" y="0px"
	 width="20px" height="20px" viewBox="0 0 20 20" style="enable-background:new 0 0 20 20;" xml:space="preserve">
	<path d="M10,0C4.477,0,0,4.477,0,10s4.477,10,10,10s10-4.477,10-10S15.523,0,10,0z M10,19.3c-5.128,0-9.3-4.172-9.3-9.3
		S4.872,0.7,10,0.7s9.3,4.172,9.3,9.3S15.128,19.3,10,19.3z"/>
	<path d="M12.059,7.52l-0.414-1.419L10.77,6.355C10.546,5.93,10.245,5.56,9.889,5.26l0.439-0.8l-1.296-0.71l-0.438,0.8
		C8.148,4.411,7.675,4.355,7.196,4.395L6.94,3.521L5.521,3.934l0.255,0.875C5.351,5.033,4.981,5.334,4.681,5.69l-0.8-0.439
		L3.17,6.547l0.8,0.439C3.832,7.43,3.776,7.904,3.816,8.383L2.941,8.639l0.414,1.419L4.23,9.803c0.224,0.426,0.525,0.795,0.881,1.096
		l-0.439,0.8l1.296,0.711l0.438-0.8c0.445,0.139,0.918,0.194,1.397,0.154l0.255,0.875l1.419-0.414l-0.255-0.875
		c0.426-0.225,0.795-0.525,1.096-0.881l0.8,0.438l0.711-1.296l-0.8-0.438c0.138-0.445,0.193-0.918,0.153-1.397L12.059,7.52z
		M9.12,8.968C8.893,9.382,8.507,9.71,8.017,9.853C7.528,9.996,7.025,9.927,6.611,9.699C6.197,9.472,5.869,9.086,5.726,8.596
		C5.583,8.107,5.652,7.604,5.88,7.19c0.227-0.415,0.613-0.743,1.103-0.885c0.489-0.143,0.992-0.074,1.406,0.153
		c0.414,0.228,0.743,0.614,0.885,1.103C9.417,8.051,9.348,8.553,9.12,8.968z"/>
	<path d="M16.378,10.169l0.325-0.73l-0.45-0.2c0.056-0.254,0.061-0.512,0.02-0.76l0.46-0.176l-0.286-0.746l-0.46,0.177
		c-0.135-0.212-0.311-0.4-0.522-0.551l0.2-0.45l-0.73-0.325l-0.2,0.45c-0.254-0.056-0.511-0.061-0.759-0.02l-0.177-0.46l-0.746,0.286
		l0.177,0.46c-0.212,0.135-0.4,0.311-0.551,0.523l-0.45-0.201l-0.325,0.73l0.45,0.2c-0.056,0.254-0.061,0.512-0.02,0.76l-0.46,0.176
		l0.286,0.746l0.46-0.177c0.135,0.212,0.311,0.4,0.523,0.551l-0.201,0.45l0.73,0.325l0.2-0.45c0.254,0.056,0.512,0.061,0.76,0.02
		l0.177,0.46l0.746-0.286l-0.177-0.46c0.212-0.135,0.4-0.311,0.551-0.523L16.378,10.169z M14.66,9.74
		c-0.238,0.092-0.512,0.092-0.764-0.02c-0.252-0.112-0.435-0.316-0.526-0.555c-0.091-0.238-0.092-0.512,0.02-0.764
		c0.112-0.252,0.316-0.435,0.555-0.526s0.512-0.092,0.764,0.02c0.251,0.112,0.435,0.316,0.526,0.555
		c0.092,0.238,0.092,0.512-0.02,0.764C15.103,9.465,14.899,9.648,14.66,9.74z"/>
	<path d="M14.714,14.964l0.191-1.012l-0.624-0.118c-0.005-0.335-0.075-0.66-0.201-0.959l0.525-0.358l-0.58-0.851L13.5,12.024
		c-0.232-0.227-0.509-0.41-0.819-0.537l0.118-0.624l-1.012-0.191l-0.118,0.624c-0.335,0.005-0.66,0.075-0.959,0.201l-0.358-0.525
		L9.5,11.553l0.358,0.525c-0.227,0.232-0.41,0.509-0.537,0.82l-0.624-0.118l-0.191,1.012L9.13,13.91
		c0.005,0.335,0.075,0.66,0.201,0.958l-0.525,0.358l0.581,0.851l0.525-0.358c0.232,0.226,0.509,0.41,0.82,0.537l-0.118,0.624
		l1.012,0.191l0.118-0.624c0.335-0.005,0.66-0.075,0.959-0.201l0.358,0.525l0.851-0.581l-0.358-0.525
		c0.227-0.232,0.41-0.509,0.537-0.819L14.714,14.964z M12.431,14.936c-0.272,0.186-0.615,0.267-0.964,0.201
		c-0.35-0.066-0.64-0.267-0.825-0.539s-0.267-0.616-0.201-0.965s0.268-0.639,0.539-0.825c0.272-0.186,0.616-0.268,0.965-0.202
		c0.35,0.066,0.64,0.268,0.825,0.54s0.267,0.615,0.201,0.965C12.905,14.46,12.703,14.75,12.431,14.936z"/>
</svg>
