<?xml version="1.0" encoding="utf-8"?>
<!-- Generator: Adobe Illustrator 21.0.0, SVG Export Plug-In . SVG Version: 6.00 Build 0)  -->
<svg version="1.1" id="Layer_1" xmlns="http://www.w3.org/2000/svg" xmlns:xlink="http://www.w3.org/1999/xlink" x="0px" y="0px"
	 viewBox="0 0 21 21" style="enable-background:new 0 0 21 21;" xml:space="preserve">
<g>
	<g>
		<path d="M16.9,5.1v0.1c0,0.2-0.2,0.4-0.4,0.4H4.9c-0.2,0-0.4-0.2-0.4-0.4V5.1c0-0.2,0.2-0.4,0.4-0.4h1.6v0C6.5,3.8,7.3,3,8.2,3
			h4.9c0.9,0,1.7,0.8,1.7,1.7v0h1.6C16.7,4.7,16.9,4.9,16.9,5.1z"/>
	</g>
	<path d="M5.4,6.6v8.7c0,1.9,1.5,3.4,3.4,3.4h3.9c1.9,0,3.4-1.5,3.4-3.4V6.6H5.4z M8,15.5C8,15.8,7.8,16,7.5,16
		C7.2,16,7,15.8,7,15.5v-7C7,8.2,7.2,8,7.5,8C7.8,8,8,8.2,8,8.5V15.5z M11,15.5c0,0.3-0.2,0.5-0.5,0.5c-0.3,0-0.5-0.2-0.5-0.5v-7
		C10,8.2,10.2,8,10.5,8C10.8,8,11,8.2,11,8.5V15.5z M14,15.5c0,0.3-0.2,0.5-0.5,0.5c-0.3,0-0.5-0.2-0.5-0.5v-7C13,8.2,13.2,8,13.5,8
		C13.8,8,14,8.2,14,8.5V15.5z"/>
</g>
</svg>
