<?xml version="1.0" encoding="utf-8"?>
<!-- Generator: Adobe Illustrator 21.0.0, SVG Export Plug-In . SVG Version: 6.00 Build 0)  -->
<svg version="1.1" id="Layer_1" xmlns="http://www.w3.org/2000/svg" xmlns:xlink="http://www.w3.org/1999/xlink" x="0px" y="0px"
	 viewBox="0 0 20 20" style="enable-background:new 0 0 20 20;" xml:space="preserve">
<g>
	<g>
		<path d="M15.9,6L15.9,6c0,0.3-0.1,0.4-0.3,0.4H5c-0.2,0-0.3-0.1-0.3-0.3V6c0-0.2,0.1-0.3,0.3-0.3h2.2V5.4c0-0.5,0.4-0.9,0.9-0.9
			h4.4c0.5,0,0.9,0.4,0.9,0.9v0.4h2.2C15.8,5.7,15.9,5.8,15.9,6z"/>
	</g>
	<path d="M5.7,7l1.2,8.6C7.1,16.4,7.7,17,8.4,17h4.1c0.7,0,1.3-0.6,1.4-1.4L14.8,7H5.7z M8.3,15C8.3,15,8.3,15,8.3,15
		c-0.1,0-0.2-0.1-0.2-0.2L7.4,8.5c0-0.1,0.1-0.2,0.2-0.2c0.1,0,0.2,0.1,0.2,0.2l0.6,6.4C8.5,14.9,8.4,15,8.3,15z M10.5,14.7
		c0,0.1-0.1,0.2-0.2,0.2s-0.2-0.1-0.2-0.2V8.4c0-0.1,0.1-0.2,0.2-0.2s0.2,0.1,0.2,0.2V14.7z M13.3,8.5l-0.6,6.4
		c0,0.1-0.1,0.2-0.2,0.2c0,0,0,0,0,0c-0.1,0-0.2-0.1-0.2-0.2l0.6-6.4c0-0.1,0.1-0.2,0.2-0.2C13.3,8.3,13.4,8.4,13.3,8.5z"/>
</g>
</svg>
