<?xml version="1.0" encoding="iso-8859-1"?>
<!-- Generator: Adobe Illustrator 16.0.2, SVG Export Plug-In . SVG Version: 6.00 Build 0)  -->
<!DOCTYPE svg PUBLIC "-//W3C//DTD SVG 1.1//EN" "http://www.w3.org/Graphics/SVG/1.1/DTD/svg11.dtd">
<svg version="1.1" id="Layer_1" xmlns="http://www.w3.org/2000/svg" xmlns:xlink="http://www.w3.org/1999/xlink" x="0px" y="0px"
	 width="20px" height="20px" viewBox="0 0 20 20" style="enable-background:new 0 0 20 20;" xml:space="preserve">
<g>
	<path d="M10,0C4.477,0,0,4.477,0,10s4.477,10,10,10s10-4.477,10-10S15.523,0,10,0z M10,19.3c-5.128,0-9.3-4.172-9.3-9.3
		S4.872,0.7,10,0.7s9.3,4.172,9.3,9.3S15.128,19.3,10,19.3z"/>
	<path d="M14.211,4.419h-1.445c-0.24,0-0.436,0.308-0.448,0.699v0.057c0,0.012,0,0.026-0.001,0.038
		c-0.012,0.389-0.208,0.698-0.448,0.698H8.082c-0.248,0-0.449-0.33-0.449-0.736v-0.02c0-0.407-0.201-0.736-0.449-0.736H5.739
		c-0.248,0-0.449,0.329-0.449,0.736v11.916h9.37V5.155C14.66,4.748,14.459,4.419,14.211,4.419z M10.825,14.3H6.5
		c-0.138,0-0.25-0.112-0.25-0.25c0-0.138,0.112-0.25,0.25-0.25h4.325c0.138,0,0.25,0.112,0.25,0.25
		C11.075,14.188,10.963,14.3,10.825,14.3z M10.825,12.5H6.5c-0.138,0-0.25-0.112-0.25-0.25S6.362,12,6.5,12h4.325
		c0.138,0,0.25,0.112,0.25,0.25S10.963,12.5,10.825,12.5z M10.825,10.653H6.5c-0.138,0-0.25-0.112-0.25-0.25
		c0-0.138,0.112-0.25,0.25-0.25h4.325c0.138,0,0.25,0.112,0.25,0.25C11.075,10.541,10.963,10.653,10.825,10.653z M10.825,8.725H6.5
		c-0.138,0-0.25-0.112-0.25-0.25c0-0.138,0.112-0.25,0.25-0.25h4.325c0.138,0,0.25,0.112,0.25,0.25
		C11.075,8.613,10.963,8.725,10.825,8.725z M13.076,13.781l-0.733,0.807l-0.008,0.008c-0.003,0.003-0.007,0.007-0.011,0.009
		c-0.005,0.005-0.011,0.009-0.017,0.013c-0.034,0.024-0.073,0.035-0.112,0.035c-0.01,0-0.02-0.001-0.03-0.003
		c-0.006,0-0.012-0.001-0.018-0.003c-0.009-0.002-0.018-0.005-0.027-0.009c-0.007-0.002-0.014-0.006-0.021-0.01
		c-0.014-0.007-0.027-0.016-0.039-0.027c-0.023-0.021-0.04-0.046-0.051-0.073l-0.233-0.483c-0.048-0.099-0.006-0.219,0.094-0.267
		c0.099-0.048,0.219-0.006,0.267,0.094l0.11,0.227l0.533-0.587c0.074-0.081,0.2-0.087,0.282-0.013
		C13.144,13.573,13.15,13.7,13.076,13.781z M13.076,11.981l-0.733,0.807l-0.008,0.008c-0.003,0.003-0.007,0.007-0.011,0.009
		c-0.005,0.005-0.011,0.009-0.017,0.013c-0.034,0.024-0.073,0.035-0.112,0.035c-0.01,0-0.02-0.001-0.03-0.003
		c-0.006,0-0.012-0.001-0.018-0.003c-0.009-0.002-0.018-0.005-0.027-0.009c-0.007-0.002-0.014-0.006-0.021-0.01
		c-0.014-0.007-0.027-0.016-0.039-0.027c-0.023-0.021-0.04-0.046-0.051-0.073l-0.233-0.483c-0.048-0.099-0.006-0.219,0.094-0.267
		c0.099-0.048,0.219-0.006,0.267,0.094l0.11,0.227l0.533-0.587c0.074-0.081,0.2-0.087,0.282-0.013
		C13.144,11.773,13.15,11.9,13.076,11.981z M13.076,10.135l-0.733,0.806c-0.003,0.003-0.005,0.005-0.008,0.008
		c-0.003,0.003-0.007,0.007-0.011,0.009c-0.005,0.005-0.011,0.009-0.017,0.013c-0.034,0.024-0.073,0.035-0.112,0.035
		c-0.01,0-0.02-0.001-0.03-0.003c-0.006,0-0.012-0.001-0.018-0.003c-0.009-0.002-0.018-0.005-0.027-0.009
		c-0.007-0.002-0.014-0.006-0.021-0.01c-0.014-0.007-0.027-0.016-0.039-0.027c-0.023-0.021-0.04-0.046-0.051-0.073l-0.233-0.483
		c-0.048-0.099-0.006-0.219,0.094-0.267c0.099-0.048,0.219-0.006,0.267,0.094l0.11,0.227l0.533-0.587
		c0.074-0.081,0.2-0.087,0.282-0.013C13.144,9.926,13.15,10.053,13.076,10.135z M13.076,8.206l-0.733,0.807l-0.008,0.008
		c-0.003,0.003-0.007,0.007-0.011,0.009c-0.005,0.005-0.011,0.009-0.017,0.013c-0.034,0.024-0.073,0.035-0.112,0.035
		c-0.01,0-0.02-0.001-0.03-0.003c-0.006,0-0.012-0.001-0.018-0.003c-0.009-0.002-0.018-0.005-0.027-0.009
		c-0.007-0.002-0.014-0.006-0.021-0.01c-0.014-0.007-0.027-0.016-0.039-0.027c-0.023-0.021-0.04-0.046-0.051-0.073L11.776,8.47
		c-0.048-0.099-0.006-0.219,0.094-0.267c0.099-0.048,0.219-0.006,0.267,0.094l0.11,0.227l0.533-0.587
		c0.074-0.081,0.2-0.087,0.282-0.013C13.144,7.998,13.15,8.125,13.076,8.206z"/>
	<path d="M12.343,6.367v0.047c0,0.01,0,0.021-0.001,0.031V6.398C12.342,6.388,12.342,6.377,12.343,6.367z"/>
	<path d="M12.343,6.367v0.047c0,0.01,0,0.021-0.001,0.031V6.398C12.342,6.388,12.342,6.377,12.343,6.367z"/>
	<path d="M11.808,4.216c0,0.654-0.386,1.184-0.862,1.184H9.004c-0.477,0-0.863-0.53-0.863-1.184l0,0
		c0-0.654,0.386-1.184,0.863-1.184h1.941C11.422,3.033,11.808,3.563,11.808,4.216L11.808,4.216z"/>
</g>
</svg>
