<?xml version="1.0" encoding="iso-8859-1"?>
<!-- Generator: Adobe Illustrator 16.0.2, SVG Export Plug-In . SVG Version: 6.00 Build 0)  -->
<!DOCTYPE svg PUBLIC "-//W3C//DTD SVG 1.1//EN" "http://www.w3.org/Graphics/SVG/1.1/DTD/svg11.dtd">
<svg version="1.1" id="Layer_1" xmlns="http://www.w3.org/2000/svg" xmlns:xlink="http://www.w3.org/1999/xlink" x="0px" y="0px"
	 width="20.083px" height="19.917px" viewBox="0 0 20.083 19.917" style="enable-background:new 0 0 20.083 19.917;"
	 xml:space="preserve">
<g>
	<path style="fill-rule:evenodd;clip-rule:evenodd;" d="M6.749,2.189c0,0.218-0.007,0.412,0.003,0.604
		c0.006,0.106,0.03,0.215,0.067,0.314C6.872,3.249,6.985,3.316,7.14,3.316c1.936-0.001,3.873-0.001,5.809,0
		c0.171,0,0.29-0.076,0.34-0.232c0.038-0.118,0.054-0.245,0.062-0.369c0.01-0.169,0.002-0.339,0.002-0.519
		c0.067-0.004,0.117-0.009,0.167-0.009c0.697,0,1.394-0.001,2.09,0c0.241,0,0.287,0.048,0.287,0.292c0,4.141,0,8.282,0,12.423
		c0,0.856,0,1.713,0,2.57c0,0.252-0.049,0.302-0.297,0.302c-3.695,0-7.391,0-11.086,0c-0.288,0-0.326-0.038-0.326-0.324
		c0-4.958,0-9.916,0-14.873c0-0.069-0.004-0.138,0.003-0.206c0.012-0.109,0.068-0.183,0.187-0.183
		C5.159,2.188,5.94,2.189,6.749,2.189z M8.123,7.91c-0.885,0-1.77,0.001-2.655-0.001c-0.133,0-0.252,0.021-0.254,0.181
		c-0.002,0.16,0.119,0.188,0.25,0.187c0.023,0,0.046,0,0.069,0c1.25,0,2.5,0,3.751,0c0.508,0,1.016-0.001,1.524,0
		c0.127,0,0.232-0.029,0.248-0.175c0.013-0.121-0.079-0.191-0.244-0.191C9.916,7.91,9.02,7.91,8.123,7.91z M8.14,10.378
		c-0.891,0-1.781,0.001-2.672-0.001c-0.135,0-0.252,0.025-0.253,0.182c-0.002,0.159,0.117,0.187,0.25,0.187c1.776,0,3.551,0,5.327,0
		c0.181,0,0.277-0.068,0.264-0.192c-0.016-0.157-0.127-0.177-0.261-0.176C9.911,10.38,9.025,10.379,8.14,10.378z M8.139,5.789
		c0.879,0,1.758,0,2.637,0c0.046,0,0.103,0.016,0.135-0.005c0.063-0.043,0.158-0.109,0.155-0.162
		c-0.003-0.067-0.08-0.144-0.143-0.191c-0.037-0.028-0.11-0.01-0.167-0.01c-1.272,0-2.545,0-3.818,0c-0.485,0-0.97,0-1.456,0
		c-0.126,0-0.236,0.028-0.24,0.18C5.238,5.762,5.349,5.79,5.485,5.79C6.37,5.788,7.254,5.789,8.139,5.789z M8.177,13.296
		c0.89,0,1.78-0.001,2.671,0c0.129,0,0.247-0.01,0.259-0.175c0.009-0.13-0.074-0.188-0.263-0.191c-0.017,0-0.034,0-0.051,0
		c-1.735,0-3.47,0-5.205,0c-0.063,0-0.142-0.016-0.184,0.015c-0.06,0.043-0.125,0.124-0.125,0.188c0,0.053,0.083,0.118,0.144,0.155
		c0.038,0.023,0.1,0.006,0.151,0.006C6.442,13.296,7.309,13.296,8.177,13.296z M8.176,15.833L8.176,15.833c0.891,0,1.781,0,2.671,0
		c0.034,0,0.08,0.013,0.101-0.004c0.059-0.049,0.147-0.11,0.149-0.168c0.002-0.06-0.076-0.136-0.136-0.179
		c-0.039-0.028-0.11-0.012-0.167-0.012c-1.701,0-3.401,0-5.102,0c-0.086,0-0.181-0.022-0.254,0.009
		c-0.069,0.029-0.157,0.114-0.158,0.175c0,0.059,0.095,0.126,0.16,0.174c0.03,0.022,0.088,0.005,0.134,0.005
		C6.441,15.833,7.309,15.833,8.176,15.833z M13.219,8.497c-0.138-0.145-0.268-0.279-0.396-0.416
		c-0.082-0.087-0.173-0.149-0.279-0.051c-0.107,0.099-0.073,0.203,0.019,0.298c0.167,0.172,0.33,0.348,0.497,0.52
		c0.123,0.125,0.195,0.126,0.317,0c0.389-0.403,0.775-0.808,1.162-1.212c0.02-0.021,0.053-0.044,0.053-0.065
		c-0.002-0.078,0.01-0.187-0.034-0.225s-0.152-0.02-0.227-0.002c-0.042,0.01-0.074,0.068-0.109,0.105
		C13.891,7.795,13.56,8.142,13.219,8.497z M13.219,10.966c-0.145-0.152-0.274-0.288-0.404-0.425c-0.084-0.089-0.18-0.135-0.28-0.033
		c-0.095,0.098-0.06,0.197,0.026,0.286c0.15,0.157,0.299,0.314,0.449,0.471c0.186,0.194,0.231,0.195,0.413,0.006
		c0.359-0.375,0.719-0.75,1.078-1.125c0.031-0.033,0.083-0.066,0.086-0.102c0.008-0.077,0.017-0.186-0.026-0.226
		c-0.042-0.04-0.151-0.023-0.226-0.006c-0.042,0.009-0.074,0.067-0.109,0.104C13.894,10.261,13.563,10.607,13.219,10.966z
		 M13.219,16.036c-0.145-0.152-0.275-0.288-0.404-0.424c-0.085-0.09-0.18-0.136-0.28-0.033c-0.096,0.098-0.062,0.196,0.024,0.286
		c0.158,0.165,0.315,0.33,0.474,0.495c0.159,0.165,0.214,0.165,0.376-0.004c0.368-0.383,0.735-0.767,1.102-1.15
		c0.027-0.029,0.074-0.058,0.076-0.089c0.005-0.078,0.017-0.186-0.026-0.226c-0.042-0.04-0.151-0.024-0.226-0.008
		c-0.042,0.009-0.074,0.067-0.109,0.104C13.894,15.331,13.563,15.677,13.219,16.036z M13.272,13.52
		c-0.137-0.144-0.261-0.27-0.38-0.399c-0.084-0.09-0.179-0.168-0.292-0.067c-0.116,0.103-0.068,0.212,0.028,0.311
		c0.159,0.164,0.314,0.332,0.473,0.495c0.132,0.136,0.209,0.136,0.342-0.002c0.321-0.333,0.64-0.667,0.96-1.001
		c0.075-0.078,0.169-0.146,0.218-0.239c0.034-0.065,0.006-0.163,0.005-0.246c-0.087,0.003-0.177-0.005-0.261,0.014
		c-0.042,0.009-0.072,0.069-0.108,0.106C13.934,12.828,13.61,13.166,13.272,13.52z M13.266,5.987
		c-0.146-0.135-0.286-0.26-0.419-0.393c-0.087-0.085-0.18-0.141-0.281-0.046c-0.105,0.099-0.067,0.204,0.024,0.298
		c0.159,0.165,0.315,0.331,0.474,0.495c0.141,0.146,0.215,0.147,0.354,0.002c0.36-0.375,0.72-0.75,1.079-1.125
		c0.04-0.042,0.102-0.08,0.11-0.127c0.014-0.075,0.02-0.187-0.022-0.227s-0.152-0.024-0.228-0.008
		c-0.042,0.009-0.075,0.067-0.11,0.104C13.916,5.308,13.585,5.654,13.266,5.987z"/>
	<path style="fill-rule:evenodd;clip-rule:evenodd;" d="M7.097,1.141c1.975,0,3.925,0,5.901,0c0,0.079,0,0.15,0,0.222
		c0,0.462-0.003,0.924,0.001,1.387C13,2.887,12.972,2.949,12.811,2.949c-1.849-0.006-3.698-0.004-5.546-0.001
		c-0.1,0-0.168-0.014-0.168-0.133C7.098,2.262,7.097,1.709,7.097,1.141z"/>
</g>
</svg>
