<?xml version="1.0" encoding="iso-8859-1"?>
<!-- Generator: Adobe Illustrator 16.0.2, SVG Export Plug-In . SVG Version: 6.00 Build 0)  -->
<!DOCTYPE svg PUBLIC "-//W3C//DTD SVG 1.1//EN" "http://www.w3.org/Graphics/SVG/1.1/DTD/svg11.dtd">
<svg version="1.1" id="Layer_1" xmlns="http://www.w3.org/2000/svg" xmlns:xlink="http://www.w3.org/1999/xlink" x="0px" y="0px"
	 width="20px" height="19.917px" viewBox="0 0 20 19.917" style="enable-background:new 0 0 20 19.917;" xml:space="preserve">
<g>
	<g>
		<path d="M14.5,3.208v0.5c0,0.28-0.427,0.5-0.795,0.5H5.795c-0.369,0-0.295-0.22-0.295-0.5v-0.5h-3v15h14v-15H14.5z M11.5,16.208
			h-8v-1h8V16.208z M11.5,13.208h-8v-1h8V13.208z M11.5,11.208h-8v-1h8V11.208z M11.5,8.208h-8v-1h8V8.208z"/>
		<path style="fill:#FFFFFF;" d="M6.5,2.208v1h7v-1H6.5z"/>
	</g>
	<g>
		<path d="M5.795,4.208H5.136v-0.5C5.136,3.988,5.427,4.208,5.795,4.208z"/>
		<rect x="6.5" y="1.208" width="7" height="2"/>
	</g>
</g>
</svg>
