<?xml version="1.0" encoding="iso-8859-1"?>
<!-- Generator: Adobe Illustrator 16.0.2, SVG Export Plug-In . SVG Version: 6.00 Build 0)  -->
<!DOCTYPE svg PUBLIC "-//W3C//DTD SVG 1.1//EN" "http://www.w3.org/Graphics/SVG/1.1/DTD/svg11.dtd">
<svg version="1.1" id="Layer_1" xmlns="http://www.w3.org/2000/svg" xmlns:xlink="http://www.w3.org/1999/xlink" x="0px" y="0px"
	 width="20px" height="20px" viewBox="0 0 20 20" style="enable-background:new 0 0 20 20;" xml:space="preserve">
<g>
	<path d="M10,0.7c5.128,0,9.3,4.172,9.3,9.3s-4.172,9.3-9.3,9.3S0.7,15.128,0.7,10S4.872,0.7,10,0.7 M10,0C4.477,0,0,4.477,0,10
		s4.477,10,10,10s10-4.477,10-10S15.523,0,10,0L10,0z"/>
	<g>
		<path d="M10,16c-3.309,0-6-2.691-6-6c0-1.403,0.495-2.768,1.392-3.843c0.354-0.424,0.985-0.48,1.409-0.127
			c0.424,0.354,0.48,0.985,0.127,1.409C6.33,8.155,6,9.065,6,10c0,2.206,1.794,4,4,4s4-1.794,4-4c0-0.951-0.339-1.872-0.955-2.593
			c-0.358-0.42-0.308-1.052,0.112-1.41s1.051-0.308,1.41,0.112C15.491,7.192,16,8.574,16,10C16,13.309,13.309,16,10,16z"/>
		<path d="M10,8.071c-0.552,0-1-0.448-1-1V2.929c0-0.552,0.448-1,1-1s1,0.448,1,1v4.143C11,7.624,10.552,8.071,10,8.071z"/>
	</g>
</g>
</svg>
