<?xml version="1.0" encoding="iso-8859-1"?>
<!-- Generator: Adobe Illustrator 16.0.2, SVG Export Plug-In . SVG Version: 6.00 Build 0)  -->
<!DOCTYPE svg PUBLIC "-//W3C//DTD SVG 1.1//EN" "http://www.w3.org/Graphics/SVG/1.1/DTD/svg11.dtd">
<svg version="1.1" id="Layer_1" xmlns="http://www.w3.org/2000/svg" xmlns:xlink="http://www.w3.org/1999/xlink" x="0px" y="0px"
	 width="20px" height="20px" viewBox="0 0 20 20" style="enable-background:new 0 0 20 20;" xml:space="preserve">
<path d="M10,0.7c5.128,0,9.3,4.172,9.3,9.3s-4.172,9.3-9.3,9.3S0.7,15.128,0.7,10S4.872,0.7,10,0.7 M10,0C4.477,0,0,4.477,0,10
	s4.477,10,10,10s10-4.477,10-10S15.523,0,10,0L10,0z"/>
<path d="M15.723,14.309l-2.003-2.096c-0.256-0.268-0.624-0.363-0.96-0.282l-0.346-0.362c0.597-0.819,0.949-1.828,0.949-2.919
	c0-2.741-2.222-4.963-4.963-4.963c-2.741,0-4.963,2.222-4.963,4.963c0,2.741,2.222,4.963,4.963,4.963
	c1.288,0,2.463-0.491,3.345-1.297l0.293,0.307c-0.097,0.331-0.019,0.704,0.236,0.971l2.003,2.097C14.473,15.896,14.737,16,15,16
	c0.248,0,0.497-0.092,0.691-0.277C16.09,15.342,16.105,14.709,15.723,14.309z M8.4,11.613c-1.634,0-2.963-1.329-2.963-2.963
	c0-1.634,1.329-2.963,2.963-2.963c1.634,0,2.963,1.329,2.963,2.963C11.363,10.284,10.034,11.613,8.4,11.613z"/>
</svg>
