<?xml version="1.0" encoding="iso-8859-1"?>
<!-- Generator: Adobe Illustrator 16.0.2, SVG Export Plug-In . SVG Version: 6.00 Build 0)  -->
<!DOCTYPE svg PUBLIC "-//W3C//DTD SVG 1.1//EN" "http://www.w3.org/Graphics/SVG/1.1/DTD/svg11.dtd">
<svg version="1.1" id="Layer_1" xmlns="http://www.w3.org/2000/svg" xmlns:xlink="http://www.w3.org/1999/xlink" x="0px" y="0px"
	 width="20px" height="20px" viewBox="0 0 20 20" style="enable-background:new 0 0 20 20;" xml:space="preserve">
<path d="M10,0C4.477,0,0,4.477,0,10s4.477,10,10,10s10-4.477,10-10S15.523,0,10,0z M10,19.3c-5.128,0-9.3-4.172-9.3-9.3
	S4.872,0.7,10,0.7s9.3,4.172,9.3,9.3S15.128,19.3,10,19.3z"/>
<g>
	<path d="M12.066,7.153v0.04c0,0.008,0,0.018-0.001,0.026V7.179C12.065,7.17,12.065,7.162,12.066,7.153z"/>
	<path d="M12.066,7.153v0.04c0,0.008,0,0.018-0.001,0.026V7.179C12.065,7.17,12.065,7.162,12.066,7.153z"/>
	<path style="fill-rule:evenodd;clip-rule:evenodd;" d="M4.999,14.387c0.024-0.107,0.041-0.216,0.072-0.321
		c0.253-0.859,0.84-1.356,1.699-1.553c0.066-0.015,0.135-0.022,0.202-0.034c0.212-0.037,0.392-0.002,0.578,0.137
		c0.748,0.559,1.511,1.096,2.269,1.642c0.148,0.106,0.207,0.106,0.358-0.002c0.81-0.579,1.618-1.159,2.43-1.735
		c0.05-0.036,0.125-0.057,0.187-0.054c0.77,0.04,1.397,0.352,1.844,0.993c0.201,0.288,0.313,0.611,0.348,0.961
		c0.002,0.022,0.011,0.043,0.017,0.064c0,0.104,0,0.208,0,0.313c-0.051,0.117-0.137,0.166-0.268,0.165c-3.15-0.002-6.3-0.002-9.45,0
		c-0.12,0-0.215-0.026-0.285-0.126C4.999,14.687,4.999,14.537,4.999,14.387z"/>
	<path style="fill-rule:evenodd;clip-rule:evenodd;" d="M8.12,10.586c-0.143-0.08-0.283-0.143-0.407-0.229
		c-0.148-0.104-0.224-0.254-0.218-0.444c0.007-0.228,0.012-0.457-0.001-0.684C7.479,8.987,7.578,8.807,7.769,8.684
		C7.888,8.607,7.932,8.522,7.911,8.39C7.908,8.372,7.915,8.352,7.917,8.327C9.3,8.631,10.681,8.631,12.06,8.33
		c0.006,0.007,0.014,0.013,0.014,0.017c-0.02,0.124,0.031,0.184,0.154,0.226c0.157,0.053,0.244,0.189,0.252,0.353
		c0.015,0.286,0.015,0.572,0.017,0.858c0.002,0.41-0.135,0.608-0.523,0.74c-0.093,0.031-0.112,0.078-0.118,0.166
		c-0.035,0.532-0.163,1.04-0.435,1.504c-0.226,0.385-0.529,0.684-0.964,0.824c-0.657,0.211-1.339-0.039-1.77-0.645
		c-0.297-0.417-0.449-0.891-0.523-1.392C8.144,10.842,8.133,10.703,8.12,10.586z"/>
	<path style="fill-rule:evenodd;clip-rule:evenodd;" d="M13.319,6.72c-0.196,0.04-0.386,0.078-0.577,0.117
		c-0.898,0.183-1.796,0.366-2.696,0.546c-0.055,0.011-0.116,0-0.172-0.012C8.643,7.112,7.412,6.853,6.181,6.593
		c-0.127-0.027-0.195-0.1-0.196-0.207S6.05,6.203,6.177,6.177c0.863-0.175,1.727-0.348,2.591-0.522
		c0.344-0.069,0.69-0.13,1.031-0.212c0.208-0.05,0.4,0.005,0.597,0.043c1.162,0.224,2.323,0.452,3.485,0.678
		c0.028,0.005,0.058,0.011,0.085,0.018c0.098,0.027,0.157,0.101,0.158,0.197c0.002,0.1-0.058,0.182-0.158,0.208
		c-0.069,0.018-0.14,0.029-0.219,0.046c0,0.034,0,0.065,0,0.098c0,0.495-0.012,0.99,0.006,1.484c0.008,0.211,0.075,0.421,0.121,0.63
		c0.089,0.413,0.183,0.825,0.275,1.238c0.042,0.187-0.044,0.295-0.239,0.296c-0.254,0.001-0.508,0.001-0.762,0
		c-0.178-0.001-0.267-0.115-0.228-0.29c0.131-0.583,0.262-1.167,0.393-1.751c0.008-0.035,0.013-0.071,0.013-0.106
		c0.001-0.479,0.001-0.958,0-1.436C13.328,6.775,13.323,6.753,13.319,6.72z M13.379,9.953c0.106,0,0.205,0,0.313,0
		c-0.049-0.221-0.097-0.435-0.145-0.65c-0.007,0-0.015,0-0.022,0.001C13.478,9.518,13.429,9.731,13.379,9.953z"/>
	<path style="fill-rule:evenodd;clip-rule:evenodd;" d="M12.078,7.402c0,0.155,0.003,0.301-0.004,0.446
		c-0.001,0.023-0.047,0.058-0.076,0.063c-0.268,0.051-0.536,0.108-0.806,0.144c-0.673,0.087-1.351,0.1-2.025,0.036
		C8.776,8.054,8.39,7.975,8.001,7.916C7.933,7.905,7.904,7.875,7.908,7.801C7.916,7.668,7.91,7.535,7.91,7.386
		c0.157,0.032,0.305,0.061,0.452,0.091c0.502,0.105,1.004,0.211,1.506,0.317c0.186,0.039,0.361-0.023,0.539-0.059
		c0.526-0.104,1.051-0.214,1.576-0.321C12.008,7.41,12.034,7.408,12.078,7.402z"/>
	<path style="fill-rule:evenodd;clip-rule:evenodd;" d="M9.376,13.426c0.417,0.11,0.828,0.108,1.244-0.001
		c-0.197,0.142-0.395,0.284-0.593,0.423c-0.015,0.01-0.047,0.012-0.06,0.002C9.77,13.71,9.573,13.568,9.376,13.426z"/>
	<path style="fill-rule:evenodd;clip-rule:evenodd;" d="M11.932,12.138c0.055,0.075,0.108,0.148,0.167,0.229
		c-0.185,0.132-0.366,0.262-0.554,0.396C11.676,12.551,11.801,12.349,11.932,12.138z"/>
	<path style="fill-rule:evenodd;clip-rule:evenodd;" d="M8.432,12.746c-0.189-0.137-0.366-0.264-0.545-0.393
		c0.059-0.08,0.113-0.152,0.168-0.226C8.179,12.331,8.301,12.531,8.432,12.746z"/>
</g>
</svg>
