<?xml version="1.0" encoding="utf-8"?>
<!-- Generator: Adobe Illustrator 16.0.2, SVG Export Plug-In . SVG Version: 6.00 Build 0)  -->
<!DOCTYPE svg PUBLIC "-//W3C//DTD SVG 1.0//EN" "http://www.w3.org/TR/2001/REC-SVG-20010904/DTD/svg10.dtd">
<svg version="1.0" id="Layer_1" xmlns="http://www.w3.org/2000/svg" xmlns:xlink="http://www.w3.org/1999/xlink" x="0px" y="0px"
	 width="40px" height="19.833px" viewBox="0 0 40 19.833" enable-background="new 0 0 40 19.833" xml:space="preserve">
<g>
	<path fill-rule="evenodd" clip-rule="evenodd" d="M2.675,15.833c0.035-0.161,0.061-0.324,0.107-0.481
		c0.379-1.288,1.258-2.031,2.545-2.327c0.1-0.023,0.202-0.034,0.303-0.051c0.318-0.055,0.586-0.003,0.866,0.206
		c1.12,0.836,2.264,1.642,3.398,2.459c0.222,0.16,0.31,0.159,0.537-0.003c1.212-0.867,2.424-1.736,3.64-2.599
		c0.075-0.054,0.188-0.086,0.279-0.081c1.154,0.06,2.093,0.528,2.762,1.487c0.301,0.432,0.47,0.916,0.521,1.44
		c0.003,0.032,0.017,0.064,0.025,0.096c0,0.156,0,0.312,0,0.468c-0.077,0.176-0.205,0.248-0.401,0.248
		c-4.719-0.003-9.438-0.004-14.156,0c-0.179,0-0.322-0.04-0.426-0.189C2.675,16.281,2.675,16.057,2.675,15.833z"/>
	<path fill-rule="evenodd" clip-rule="evenodd" d="M2.675,16.505c0.104,0.149,0.247,0.189,0.426,0.189
		c4.719-0.004,9.438-0.003,14.156,0c0.196,0,0.324-0.072,0.401-0.248c0,0.205,0,0.41,0,0.615c-4.995,0-9.989,0-14.983,0
		C2.675,16.876,2.675,16.691,2.675,16.505z"/>
	<path fill-rule="evenodd" clip-rule="evenodd" d="M7.345,10.138c-0.217-0.122-0.426-0.217-0.61-0.348
		C6.518,9.636,6.406,9.416,6.414,9.137c0.009-0.341,0.018-0.684-0.002-1.023C6.389,7.746,6.539,7.472,6.83,7.284
		c0.171-0.111,0.238-0.236,0.208-0.427C7.033,6.829,7.04,6.799,7.042,6.754c2.076,0.457,4.147,0.456,6.229,0
		c0.003,0.059,0.005,0.106,0.008,0.153c0.002,0.043,0.004,0.086,0.006,0.127c0.511,0.147,0.614,0.418,0.621,0.87
		c0.006,0.395-0.008,0.79,0.004,1.185c0.009,0.331-0.129,0.576-0.394,0.753c-0.128,0.086-0.269,0.161-0.414,0.21
		c-0.113,0.039-0.147,0.091-0.154,0.205c-0.043,0.748-0.214,1.464-0.565,2.129c-0.308,0.583-0.725,1.063-1.349,1.325
		c-0.972,0.409-2.048,0.106-2.742-0.774c-0.467-0.592-0.713-1.28-0.844-2.014C7.4,10.656,7.377,10.384,7.345,10.138z"/>
	<path fill-rule="evenodd" clip-rule="evenodd" d="M15.14,4.348c-0.293,0.059-0.578,0.116-0.862,0.174
		c-1.346,0.273-2.691,0.548-4.038,0.819c-0.055,0.011-0.117,0.008-0.173-0.003C8.189,4.945,6.311,4.551,4.434,4.156
		C4.255,4.118,4.155,4.007,4.152,3.85C4.149,3.689,4.248,3.573,4.437,3.535c1.05-0.213,2.101-0.424,3.151-0.636
		C8.386,2.738,9.184,2.584,9.98,2.416c0.263-0.056,0.503,0.031,0.749,0.078c1.761,0.337,3.52,0.682,5.278,1.025
		c0.222,0.043,0.32,0.128,0.338,0.287c0.018,0.168-0.077,0.304-0.247,0.346c-0.1,0.024-0.2,0.042-0.316,0.065
		c0,0.049,0,0.097,0,0.144c0,0.742-0.019,1.483,0.009,2.224c0.011,0.316,0.111,0.631,0.18,0.944
		c0.134,0.619,0.273,1.236,0.411,1.854c0.063,0.282-0.064,0.445-0.354,0.446c-0.381,0.002-0.761,0.002-1.142,0
		c-0.269-0.001-0.402-0.171-0.345-0.431c0.197-0.875,0.394-1.749,0.589-2.623c0.012-0.052,0.021-0.106,0.021-0.159
		c0.001-0.722,0.001-1.444,0.001-2.166C15.151,4.423,15.146,4.395,15.14,4.348z M15.699,9.19c-0.075-0.333-0.147-0.653-0.22-0.974
		c-0.011,0.001-0.022,0.002-0.033,0.004c-0.072,0.32-0.144,0.641-0.218,0.97C15.392,9.19,15.539,9.19,15.699,9.19z"/>
	<path fill-rule="evenodd" clip-rule="evenodd" d="M7.044,5.343c0.378,0.079,0.744,0.155,1.11,0.232
		c0.61,0.128,1.216,0.28,1.831,0.373c0.254,0.039,0.53-0.031,0.79-0.081c0.789-0.152,1.574-0.319,2.361-0.479
		c0.041-0.008,0.084-0.01,0.144-0.017c0,0.228,0.005,0.446-0.006,0.664c-0.001,0.035-0.069,0.088-0.113,0.095
		c-0.6,0.097-1.198,0.212-1.803,0.272c-0.903,0.089-1.812,0.076-2.714-0.026c-0.535-0.061-1.065-0.159-1.6-0.24
		C7.044,5.854,7.044,5.612,7.044,5.343z"/>
	<path fill-rule="evenodd" clip-rule="evenodd" d="M11.091,14.394c-0.292,0.209-0.583,0.42-0.877,0.626
		c-0.024,0.017-0.079,0.02-0.102,0.004c-0.293-0.207-0.584-0.418-0.872-0.643C9.858,14.553,10.472,14.559,11.091,14.394z"/>
	<path fill-rule="evenodd" clip-rule="evenodd" d="M13.06,12.464c0.079,0.107,0.159,0.216,0.25,0.341
		c-0.275,0.198-0.546,0.393-0.83,0.597C12.678,13.082,12.866,12.776,13.06,12.464z"/>
	<path fill-rule="evenodd" clip-rule="evenodd" d="M7,12.785c0.09-0.121,0.171-0.229,0.252-0.337
		c0.187,0.306,0.37,0.605,0.564,0.925C7.539,13.172,7.276,12.983,7,12.785z"/>
	<path fill-rule="evenodd" clip-rule="evenodd" d="M15.699,9.19c-0.16,0-0.308,0-0.471,0c0.074-0.329,0.146-0.65,0.218-0.97
		c0.011-0.001,0.022-0.003,0.033-0.004C15.552,8.537,15.624,8.857,15.699,9.19z"/>
</g>
<g>
	<path fill-rule="evenodd" clip-rule="evenodd" fill="#DBDBDB" d="M22.675,15.833c0.035-0.161,0.061-0.324,0.107-0.481
		c0.379-1.288,1.258-2.031,2.545-2.327c0.1-0.023,0.202-0.034,0.303-0.051c0.318-0.055,0.586-0.003,0.866,0.206
		c1.12,0.836,2.264,1.642,3.398,2.459c0.222,0.16,0.31,0.159,0.537-0.003c1.212-0.867,2.424-1.736,3.64-2.599
		c0.075-0.054,0.188-0.086,0.279-0.081c1.154,0.06,2.093,0.528,2.762,1.487c0.301,0.432,0.47,0.916,0.521,1.44
		c0.003,0.032,0.017,0.064,0.025,0.096c0,0.156,0,0.312,0,0.468c-0.077,0.176-0.205,0.248-0.401,0.248
		c-4.719-0.003-9.438-0.004-14.156,0c-0.179,0-0.322-0.04-0.426-0.189C22.675,16.281,22.675,16.057,22.675,15.833z"/>
	<path fill-rule="evenodd" clip-rule="evenodd" fill="#DBDBDB" d="M22.675,16.505c0.104,0.149,0.247,0.189,0.426,0.189
		c4.719-0.004,9.438-0.003,14.156,0c0.196,0,0.324-0.072,0.401-0.248c0,0.205,0,0.41,0,0.615c-4.995,0-9.989,0-14.983,0
		C22.675,16.876,22.675,16.691,22.675,16.505z"/>
	<path fill-rule="evenodd" clip-rule="evenodd" fill="#DBDBDB" d="M27.345,10.138c-0.217-0.122-0.426-0.217-0.61-0.348
		c-0.217-0.154-0.329-0.374-0.321-0.653c0.009-0.341,0.018-0.684-0.002-1.023c-0.022-0.367,0.127-0.641,0.419-0.829
		c0.171-0.111,0.238-0.236,0.208-0.427c-0.004-0.028,0.002-0.058,0.005-0.103c2.076,0.457,4.147,0.456,6.229,0
		c0.003,0.059,0.005,0.106,0.008,0.153c0.002,0.043,0.004,0.086,0.006,0.127c0.511,0.147,0.614,0.418,0.621,0.87
		c0.006,0.395-0.008,0.79,0.004,1.185c0.009,0.331-0.129,0.576-0.394,0.753c-0.128,0.086-0.269,0.161-0.414,0.21
		c-0.113,0.039-0.147,0.091-0.154,0.205c-0.043,0.748-0.214,1.464-0.565,2.129c-0.308,0.583-0.725,1.063-1.349,1.325
		c-0.972,0.409-2.048,0.106-2.742-0.774c-0.467-0.592-0.713-1.28-0.844-2.014C27.4,10.656,27.377,10.384,27.345,10.138z"/>
	<path fill-rule="evenodd" clip-rule="evenodd" fill="#DBDBDB" d="M35.14,4.348c-0.293,0.059-0.578,0.116-0.862,0.174
		c-1.346,0.273-2.691,0.548-4.038,0.819c-0.055,0.011-0.117,0.008-0.173-0.003c-1.878-0.393-3.756-0.787-5.633-1.182
		c-0.179-0.038-0.278-0.148-0.281-0.306c-0.003-0.161,0.096-0.277,0.285-0.315c1.05-0.213,2.101-0.424,3.151-0.636
		c0.797-0.161,1.596-0.315,2.392-0.483c0.263-0.056,0.503,0.031,0.749,0.078c1.761,0.337,3.52,0.682,5.278,1.025
		c0.222,0.043,0.32,0.128,0.338,0.287c0.018,0.168-0.077,0.304-0.247,0.346c-0.1,0.024-0.2,0.042-0.316,0.065
		c0,0.049,0,0.097,0,0.144c0,0.742-0.019,1.483,0.009,2.224c0.011,0.316,0.111,0.631,0.18,0.944
		c0.134,0.619,0.273,1.236,0.411,1.854c0.063,0.282-0.064,0.445-0.354,0.446c-0.381,0.002-0.761,0.002-1.142,0
		c-0.269-0.001-0.402-0.171-0.345-0.431c0.197-0.875,0.394-1.749,0.589-2.623c0.012-0.052,0.021-0.106,0.021-0.159
		c0.001-0.722,0.001-1.444,0.001-2.166C35.151,4.423,35.146,4.395,35.14,4.348z M35.699,9.19c-0.075-0.333-0.147-0.653-0.22-0.974
		c-0.011,0.001-0.022,0.002-0.033,0.004c-0.072,0.32-0.144,0.641-0.218,0.97C35.392,9.19,35.539,9.19,35.699,9.19z"/>
	<path fill-rule="evenodd" clip-rule="evenodd" fill="#DBDBDB" d="M27.044,5.343c0.378,0.079,0.744,0.155,1.11,0.232
		c0.61,0.128,1.216,0.28,1.831,0.373c0.254,0.039,0.53-0.031,0.79-0.081c0.789-0.152,1.574-0.319,2.361-0.479
		c0.041-0.008,0.084-0.01,0.144-0.017c0,0.228,0.005,0.446-0.006,0.664c-0.001,0.035-0.069,0.088-0.113,0.095
		c-0.6,0.097-1.198,0.212-1.803,0.272c-0.903,0.089-1.812,0.076-2.714-0.026c-0.535-0.061-1.065-0.159-1.6-0.24
		C27.044,5.854,27.044,5.612,27.044,5.343z"/>
	<path fill-rule="evenodd" clip-rule="evenodd" fill="#DBDBDB" d="M31.091,14.394c-0.292,0.209-0.583,0.42-0.877,0.626
		c-0.024,0.017-0.079,0.02-0.102,0.004c-0.293-0.207-0.584-0.418-0.872-0.643C29.858,14.553,30.472,14.559,31.091,14.394z"/>
	<path fill-rule="evenodd" clip-rule="evenodd" fill="#DBDBDB" d="M33.06,12.464c0.079,0.107,0.159,0.216,0.25,0.341
		c-0.275,0.198-0.546,0.393-0.83,0.597C32.678,13.082,32.866,12.776,33.06,12.464z"/>
	<path fill-rule="evenodd" clip-rule="evenodd" fill="#DBDBDB" d="M27,12.785c0.09-0.121,0.171-0.229,0.252-0.337
		c0.187,0.306,0.37,0.605,0.564,0.925C27.539,13.172,27.276,12.983,27,12.785z"/>
	<path fill-rule="evenodd" clip-rule="evenodd" fill="#DBDBDB" d="M35.699,9.19c-0.16,0-0.308,0-0.471,0
		c0.074-0.329,0.146-0.65,0.218-0.97c0.011-0.001,0.022-0.003,0.033-0.004C35.552,8.537,35.624,8.857,35.699,9.19z"/>
</g>
</svg>
